<svg id="Layer_1" data-name="Layer 1" xmlns="http://www.w3.org/2000/svg" viewBox="0 0 200 200"><defs><style>.cls-1{fill:#6b6866;}</style></defs><path class="cls-1" d="M136.3,111.05A37.39,37.39,0,1,0,98.91,73.66,37.39,37.39,0,0,0,136.3,111.05Z"/><path class="cls-1" d="M83.79,100.25H53.06V69.6a6.74,6.74,0,1,0-13.47,0v30.65H9a6.74,6.74,0,1,0,0,13.47H39.59v30.66a6.74,6.74,0,1,0,13.47,0V113.72H83.72a6.74,6.74,0,1,0,0-13.47Z"/><path class="cls-1" d="M196.24,164.55a63.8,63.8,0,0,0-119.85,0,9.47,9.47,0,0,0,.47,7.21A9.38,9.38,0,0,0,85.35,177H187.28a9.51,9.51,0,0,0,9-12.46Z"/></svg>