<svg xmlns="http://www.w3.org/2000/svg" xmlns:xlink="http://www.w3.org/1999/xlink" viewBox="0 0 200 200"><defs><style>.cls-1{fill:none;}.cls-2{clip-path:url(#clip-path);}.cls-3{fill:#0774d4;}.cls-4{fill:#fff;}</style><clipPath id="clip-path"><rect class="cls-1" width="200" height="200"/></clipPath></defs><g id="Layer_2" data-name="Layer 2"><g id="Group_8598" data-name="Group 8598"><g class="cls-2"><g id="Group_8598-2" data-name="Group 8598-2"><path id="Path_16073" data-name="Path 16073" class="cls-3" d="M200,100a34.35,34.35,0,0,0-22.3-32.19A34.37,34.37,0,0,0,132.19,22.3a34.38,34.38,0,0,0-64.37,0A34.37,34.37,0,0,0,22.3,67.81a34.38,34.38,0,0,0,0,64.37A34.38,34.38,0,0,0,67.81,177.7a34.38,34.38,0,0,0,64.37,0,34.37,34.37,0,0,0,45.51-45.51A34.33,34.33,0,0,0,200,100"/></g></g></g><g id="Group_8598-2-2" data-name="Group 8598"><g id="Group_8598-2-3" data-name="Group 8598-2"><path id="Path_16073-2" data-name="Path 16073" class="cls-4" d="M153.23,76.22,90.17,139.28a5.48,5.48,0,0,1-7.75,0h0L46.78,103.63a5.48,5.48,0,0,1,0-7.75h0l7.75-7.75a5.48,5.48,0,0,1,7.75,0h0l24,24,51.44-51.42a5.48,5.48,0,0,1,7.75,0h0l7.75,7.75a5.48,5.48,0,0,1,0,7.75h0"/></g></g></g></svg>