<svg xmlns="http://www.w3.org/2000/svg" viewBox="0 0 28.341 23.027"><defs><style>.cls-1{fill:#888;}</style></defs><g id="Layer_2" data-name="Layer 2"><g id="Layer_1-2" data-name="Layer 1"><path class="cls-1" d="M14.171,7.084a5.314,5.314,0,1,0,5.314,5.314h0A5.3141,5.3141,0,0,0,14.171,7.084Z"/><path class="cls-1" d="M27.455,3.543H22.1L19.13.289A.8857.8857,0,0,0,18.473,0H9.867a.8861.8861,0,0,0-.654.289L6.244,3.543H.886A.8861.8861,0,0,0,0,4.428V22.141a.886.886,0,0,0,.886.886H27.455a.886.886,0,0,0,.886-.886V4.428A.8861.8861,0,0,0,27.455,3.543ZM14.17,19.661a7.262,7.262,0,1,1,7.262-7.262V12.4A7.262,7.262,0,0,1,14.17,19.661Z"/></g></g></svg>