<svg width="37" height="36" viewBox="0 0 37 36" fill="none" xmlns="http://www.w3.org/2000/svg">
<path d="M18.1703 35.1C27.6143 35.1 35.2703 27.4441 35.2703 18C35.2703 8.55596 27.6143 0.900024 18.1703 0.900024C8.72618 0.900024 1.07025 8.55596 1.07025 18C1.07025 27.4441 8.72618 35.1 18.1703 35.1Z" fill="url(#paint0_linear_157_11697)"/>
<path d="M34.0183 18.7641C34.0345 18.4653 34.0435 18.1647 34.0435 17.8641C34.0435 13.6542 32.3712 9.61678 29.3943 6.63996C26.4175 3.66314 22.3801 1.99078 18.1702 1.99078C13.9604 1.99078 9.92294 3.66314 6.94612 6.63996C3.9693 9.61678 2.29694 13.6542 2.29694 17.8641C2.29694 18.1665 2.30594 18.4671 2.32214 18.7641H34.0183Z" fill="url(#paint1_linear_157_11697)"/>
<path opacity="0.7" d="M13.2563 4.39738C12.9998 3.30838 15.5747 1.74418 18.3692 1.79818C21.1637 1.85218 23.3984 3.25078 23.0699 4.64938C22.8638 5.52598 21.1097 4.66378 18.3152 4.60978C15.5207 4.55578 13.5803 5.75998 13.2563 4.39738Z" fill="white"/>
<path opacity="0.7" d="M26.7356 26.5653C31.4661 21.8348 31.4661 14.1652 26.7356 9.43474C22.0052 4.70429 14.3356 4.70429 9.60511 9.43474C4.87465 14.1652 4.87465 21.8348 9.60511 26.5653C14.3356 31.2957 22.0052 31.2957 26.7356 26.5653Z" fill="url(#paint2_linear_157_11697)"/>
<path d="M25.4776 25.3071C29.5132 21.2715 29.5132 14.7285 25.4776 10.6929C21.442 6.6573 14.899 6.6573 10.8634 10.6929C6.82777 14.7285 6.82777 21.2715 10.8634 25.3071C14.899 29.3427 21.442 29.3427 25.4776 25.3071Z" fill="url(#paint3_linear_157_11697)"/>
<path d="M19.2547 10.6596L20.8873 13.9671C20.974 14.143 21.1022 14.2952 21.2609 14.4104C21.4196 14.5257 21.604 14.6006 21.7981 14.6286L25.4476 15.1596C25.6711 15.1918 25.8811 15.2859 26.0538 15.4313C26.2265 15.5767 26.355 15.7676 26.4248 15.9823C26.4946 16.197 26.5029 16.427 26.4487 16.6462C26.3944 16.8654 26.2799 17.065 26.1181 17.2224L23.4802 19.8C23.3398 19.937 23.2348 20.106 23.1741 20.2926C23.1135 20.4791 23.099 20.6776 23.1319 20.871L23.7502 24.5025C23.7886 24.725 23.7639 24.9538 23.679 25.1631C23.594 25.3723 23.4522 25.5536 23.2696 25.6864C23.0869 25.8192 22.8708 25.8982 22.6456 25.9145C22.4203 25.9308 22.195 25.8838 21.9952 25.7787L18.7309 24.0624C18.5571 23.971 18.3638 23.9233 18.1675 23.9233C17.9712 23.9233 17.7778 23.971 17.6041 24.0624L14.3398 25.7787C14.1401 25.8823 13.9154 25.9282 13.6911 25.9111C13.4668 25.8941 13.2516 25.8148 13.0699 25.6822C12.8881 25.5497 12.7469 25.369 12.6622 25.1606C12.5775 24.9522 12.5525 24.7243 12.5902 24.5025L13.2139 20.8683C13.2457 20.6749 13.2301 20.4767 13.1685 20.2906C13.1069 20.1045 13.0011 19.9362 12.8602 19.8L10.2196 17.2251C10.0577 17.0677 9.94321 16.8681 9.889 16.6489C9.83479 16.4297 9.84304 16.1997 9.91284 15.985C9.98263 15.7703 10.1112 15.5794 10.2839 15.434C10.4566 15.2886 10.6666 15.1945 10.8901 15.1623L14.5396 14.6313C14.7337 14.6033 14.9181 14.5284 15.0768 14.4131C15.2354 14.2979 15.3637 14.1457 15.4504 13.9698L17.0902 10.6596C17.1906 10.4585 17.345 10.2893 17.5362 10.1711C17.7273 10.0529 17.9477 9.99023 18.1724 9.99023C18.3972 9.99023 18.6175 10.0529 18.8087 10.1711C18.9999 10.2893 19.1543 10.4585 19.2547 10.6596Z" fill="url(#paint4_linear_157_11697)"/>
<path d="M19.2547 9.45811L20.8873 12.7647C20.9741 12.9407 21.1023 13.0929 21.261 13.2083C21.4196 13.3237 21.604 13.3988 21.7981 13.4271L25.4476 13.9572C25.6709 13.9897 25.8806 14.084 26.0531 14.2295C26.2256 14.3749 26.354 14.5657 26.4237 14.7803C26.4935 14.9949 26.5018 15.2247 26.4478 15.4438C26.3938 15.6628 26.2796 15.8624 26.1181 16.02L23.4802 18.5949C23.3398 18.7319 23.2348 18.901 23.1741 19.0875C23.1135 19.274 23.099 19.4725 23.1319 19.6659L23.7502 23.301C23.7884 23.5235 23.7635 23.7522 23.6785 23.9613C23.5935 24.1703 23.4517 24.3515 23.2691 24.4842C23.0865 24.6168 22.8704 24.6958 22.6453 24.7121C22.4202 24.7284 22.195 24.6813 21.9952 24.5763L18.7336 22.86C18.5598 22.7686 18.3665 22.7209 18.1702 22.7209C17.9739 22.7209 17.7805 22.7686 17.6068 22.86L14.3425 24.5763C14.1428 24.6806 13.9179 24.727 13.6932 24.7104C13.4686 24.6937 13.253 24.6147 13.0708 24.4821C12.8887 24.3495 12.7472 24.1687 12.6622 23.96C12.5773 23.7513 12.5524 23.5231 12.5902 23.301L13.2139 19.6659C13.2468 19.4725 13.2323 19.274 13.1716 19.0875C13.111 18.901 13.006 18.7319 12.8656 18.5949L10.2223 16.02C10.0605 15.8625 9.94606 15.6628 9.89189 15.4436C9.83772 15.2244 9.84599 14.9944 9.91576 14.7796C9.98554 14.5649 10.114 14.374 10.2867 14.2285C10.4594 14.0829 10.6693 13.9887 10.8928 13.9563L14.5423 13.4262C14.7364 13.3979 14.9207 13.3228 15.0794 13.2074C15.2381 13.092 15.3663 12.9398 15.4531 12.7638L17.0902 9.45811C17.1906 9.257 17.345 9.08785 17.5362 8.96962C17.7273 8.85139 17.9477 8.78876 18.1724 8.78876C18.3972 8.78876 18.6175 8.85139 18.8087 8.96962C18.9999 9.08785 19.1543 9.257 19.2547 9.45811Z" fill="white"/>
<path d="M19.4527 10.4598C19.4527 10.8198 19.0477 11.1123 18.5473 11.1123C18.0469 11.1123 17.5672 10.8171 17.5672 10.4571C17.579 10.2408 17.6723 10.0371 17.8282 9.88679C17.9842 9.73651 18.1913 9.65087 18.4078 9.64709C18.9082 9.65159 19.4527 10.0998 19.4527 10.4598Z" fill="white"/>
<path d="M20.1225 12.1869C20.1225 12.4569 19.8714 12.6072 19.6302 12.6072C19.389 12.6072 19.137 12.4596 19.137 12.1869C19.137 11.9142 19.3332 11.6928 19.5753 11.6928C19.8174 11.6928 20.1225 11.9142 20.1225 12.1869Z" fill="white"/>
<defs>
<linearGradient id="paint0_linear_157_11697" x1="18.1703" y1="2.34452" x2="18.1703" y2="58.3947" gradientUnits="userSpaceOnUse">
<stop stop-color="#39AAFF"/>
<stop offset="0.59" stop-color="#2F45CF"/>
<stop offset="1" stop-color="#2D2A77"/>
</linearGradient>
<linearGradient id="paint1_linear_157_11697" x1="18.1702" y1="-5.56831" x2="18.1702" y2="37.9008" gradientUnits="userSpaceOnUse">
<stop offset="0.04" stop-color="#36B1CB"/>
<stop offset="0.48" stop-color="#31A9FF"/>
<stop offset="1" stop-color="#2F45CF"/>
</linearGradient>
<linearGradient id="paint2_linear_157_11697" x1="18.1705" y1="-27.2392" x2="18.1705" y2="38.0765" gradientUnits="userSpaceOnUse">
<stop stop-color="#39AAFF"/>
<stop offset="0.47" stop-color="#2F45CF"/>
<stop offset="1" stop-color="#20235E"/>
</linearGradient>
<linearGradient id="paint3_linear_157_11697" x1="18.1704" y1="8.28" x2="19.9704" y2="27" gradientUnits="userSpaceOnUse">
<stop stop-color="#39AAFF"/>
<stop offset="0.457924" stop-color="#2071AC"/>
<stop offset="1" stop-color="#173E8A"/>
</linearGradient>
<linearGradient id="paint4_linear_157_11697" x1="3335.93" y1="-2078.9" x2="3335.93" y2="5524.08" gradientUnits="userSpaceOnUse">
<stop stop-color="#39AAFF"/>
<stop offset="0.47" stop-color="#2F45CF"/>
<stop offset="1" stop-color="#20235E"/>
</linearGradient>
</defs>
</svg>
