<?xml version="1.0" encoding="utf-8"?>
<!-- Generator: Adobe Illustrator 25.4.1, SVG Export Plug-In . SVG Version: 6.00 Build 0)  -->
<svg version="1.1" id="Component_75_88" xmlns="http://www.w3.org/2000/svg" xmlns:xlink="http://www.w3.org/1999/xlink" x="0px"
	 y="0px" viewBox="0 0 48 48" style="enable-background:new 0 0 48 48;" xml:space="preserve">
<style type="text/css">
	.st0{fill:#FFFFFF;}
</style>
<g id="send" transform="translate(10 14.777)">
	<g id="Group_10">
		<path id="Path_8" class="st0" d="M27.1,0.4C27,0.1,26.7,0,26.4,0L0.7,1.7C0.3,1.7,0,2.1,0,2.5C0,2.7,0.1,2.9,0.2,3l7.5,7.3
			l1.4,10.4c0,0.3,0.2,0.5,0.5,0.6l0,0c0.3,0.1,0.6,0,0.8-0.2L27,1.2C27.2,1,27.2,0.7,27.1,0.4L27.1,0.4z M2.5,3.1l20.4-1.4L8.6,9
			L2.5,3.1z M10.5,18.8l-1.2-8.4l14.3-7.3L10.5,18.8z"/>
	</g>
</g>
</svg>
